<?xml version="1.0" standalone="no"?>
<!DOCTYPE svg PUBLIC "-//W3C//DTD SVG 20010904//EN"
 "http://www.w3.org/TR/2001/REC-SVG-20010904/DTD/svg10.dtd">
<svg version="1.0" xmlns="http://www.w3.org/2000/svg"
 width="996.000000pt" height="1472.000000pt" viewBox="0 0 996.000000 1472.000000"
 preserveAspectRatio="xMidYMid meet">
<metadata>
Created by potrace 1.16, written by Peter Selinger 2001-2019
</metadata>
<g transform="translate(0.000000,1472.000000) scale(0.100000,-0.100000)"
fill="#F2EEE7" stroke="none">
<path d="M5268 13252 c-82 -51 -121 -197 -93 -344 15 -82 23 -213 13 -224 -6
-5 -166 121 -228 180 -9 8 -27 20 -40 26 -14 6 -50 26 -80 45 -67 41 -111 45
-144 12 -31 -31 -44 -176 -28 -322 6 -55 8 -103 4 -107 -4 -4 -23 3 -42 16
-19 13 -65 39 -102 59 -37 20 -87 49 -110 64 -70 43 -178 42 -178 -3 0 -8 -6
-27 -14 -42 -21 -41 -28 -246 -10 -297 32 -91 10 -131 -49 -85 -14 11 -30 20
-35 20 -5 0 -15 6 -21 14 -7 8 -31 18 -54 21 -23 4 -54 14 -69 21 -30 16 -129
13 -150 -3 -7 -6 -26 -13 -41 -17 -34 -8 -58 -57 -58 -119 -1 -68 15 -160 33
-192 9 -16 19 -46 23 -66 3 -21 12 -42 20 -49 8 -7 15 -20 15 -30 0 -9 8 -28
18 -41 30 -41 66 -118 59 -125 -3 -4 -26 10 -51 30 -24 20 -49 36 -54 36 -5 0
-28 14 -51 30 -86 63 -235 100 -289 71 -41 -22 -76 -157 -52 -201 6 -11 15
-43 20 -71 10 -51 38 -115 86 -194 13 -22 26 -47 29 -55 4 -8 12 -26 20 -40 7
-14 27 -53 44 -86 17 -34 47 -77 66 -97 19 -20 35 -40 35 -45 0 -5 20 -35 45
-66 25 -32 45 -63 45 -70 0 -6 12 -22 26 -35 14 -14 42 -49 62 -80 21 -30 45
-65 54 -79 9 -14 24 -30 32 -34 18 -10 21 -28 5 -28 -6 0 -22 9 -36 20 -14 11
-34 20 -43 20 -10 0 -23 7 -30 14 -12 15 -89 56 -105 56 -7 0 -46 17 -161 71
-22 10 -47 19 -56 19 -9 0 -18 6 -21 14 -3 8 -21 19 -39 25 -61 19 -153 52
-185 67 -17 7 -45 14 -62 14 -18 0 -42 6 -54 14 -12 7 -43 16 -69 20 -26 3
-73 14 -105 25 -99 33 -211 61 -247 61 -19 0 -60 6 -90 14 -30 8 -84 16 -120
18 -57 2 -68 0 -90 -21 -46 -43 -37 -90 34 -178 33 -42 60 -80 60 -85 0 -16
43 -69 103 -128 47 -46 55 -59 42 -64 -9 -3 -26 -4 -38 -1 -12 3 -40 -3 -62
-15 -21 -11 -53 -20 -70 -20 -16 0 -50 -9 -74 -20 -24 -11 -51 -20 -61 -20
-52 0 -246 -91 -255 -119 -19 -62 61 -179 164 -239 25 -14 66 -41 91 -58 25
-17 56 -35 69 -39 14 -4 38 -16 55 -26 17 -11 41 -19 52 -19 12 0 27 -7 34
-15 7 -8 28 -17 49 -20 20 -4 47 -11 61 -17 14 -6 49 -16 79 -22 105 -22 73
-46 -67 -51 -123 -4 -311 -30 -324 -43 -7 -7 -24 -12 -39 -12 -31 0 -89 -64
-89 -97 0 -43 123 -163 167 -163 6 0 16 -7 23 -15 7 -8 28 -17 49 -21 20 -4
44 -13 53 -21 9 -8 36 -17 60 -20 24 -3 54 -14 67 -24 13 -11 37 -19 54 -19
16 0 50 -7 76 -15 25 -8 59 -17 74 -20 61 -12 -10 -32 -143 -40 -46 -3 -124
-26 -170 -50 -14 -7 -39 -16 -57 -19 -17 -4 -37 -14 -44 -22 -6 -8 -25 -14
-41 -14 -28 0 -115 -43 -130 -65 -4 -5 -8 -29 -8 -53 0 -37 4 -44 28 -54 15
-7 35 -20 45 -30 10 -10 30 -18 45 -18 16 0 33 -5 39 -11 12 -12 121 -59 138
-59 6 0 33 -11 60 -25 28 -13 64 -25 80 -25 17 0 59 -9 93 -20 35 -11 84 -20
108 -20 24 0 44 -4 44 -8 0 -10 -43 -52 -53 -52 -12 0 -171 -171 -194 -210
l-24 -40 21 -35 c12 -19 31 -37 43 -40 107 -24 180 -46 237 -72 46 -21 655
-30 895 -13 157 11 337 40 375 60 30 16 65 12 85 -10 10 -11 26 -20 35 -20 9
0 29 -14 46 -31 30 -32 123 -89 144 -89 6 0 23 -9 37 -20 14 -11 35 -20 47
-20 12 0 30 -6 41 -14 11 -7 31 -17 45 -21 14 -4 32 -13 40 -19 13 -11 68 -33
190 -76 19 -7 53 -17 75 -22 22 -6 57 -17 79 -25 46 -16 200 -40 345 -53 57
-5 108 -13 113 -18 10 -10 -115 -140 -162 -171 -14 -8 -53 -37 -87 -64 -64
-50 -145 -97 -166 -97 -7 0 -30 -9 -52 -20 -46 -24 -67 -25 -103 -6 -15 8 -54
17 -87 21 -33 4 -67 13 -75 20 -8 7 -26 16 -40 20 -14 4 -34 15 -45 25 -41 35
-85 27 -85 -17 0 -27 100 -133 125 -133 33 0 77 -18 71 -29 -19 -30 -124 -15
-156 23 -7 9 -19 16 -26 16 -7 0 -20 13 -29 30 -26 50 -88 69 -100 30 -8 -26
-2 -36 74 -121 24 -27 41 -52 38 -55 -6 -6 -153 38 -187 56 -23 12 -43 -9 -38
-41 3 -22 32 -44 94 -73 17 -8 35 -19 38 -25 10 -16 146 -13 176 4 14 8 41 14
61 15 21 0 47 9 62 20 14 11 38 20 55 20 16 0 37 9 47 20 10 11 28 20 40 20
12 0 34 9 48 20 14 11 31 20 37 20 13 0 195 89 251 123 70 43 208 169 317 292
l62 70 108 6 c59 3 127 10 152 16 25 7 64 16 88 22 76 19 126 33 177 49 28 8
66 18 85 22 19 5 50 14 67 21 23 9 36 10 43 3 11 -11 6 -26 -36 -119 -7 -16
-16 -43 -20 -60 -4 -16 -40 -87 -80 -157 -40 -70 -75 -137 -79 -150 -4 -13
-16 -31 -26 -41 -11 -10 -19 -24 -19 -31 0 -7 -12 -23 -26 -37 -15 -13 -43
-51 -64 -84 -74 -115 -236 -295 -267 -295 -9 0 -35 -16 -59 -35 -49 -41 -91
-45 -216 -21 -100 19 -309 20 -373 2 -28 -8 -81 -16 -118 -20 -38 -3 -94 -13
-125 -22 -175 -50 -353 -111 -392 -134 -25 -14 -72 -39 -105 -55 -33 -16 -81
-46 -106 -67 -26 -21 -50 -38 -54 -38 -23 0 -215 -182 -215 -205 0 -8 -70
-107 -96 -136 -13 -14 -24 -29 -24 -33 0 -4 -8 -20 -19 -34 -10 -15 -21 -39
-25 -54 -3 -16 -10 -28 -15 -28 -5 0 -12 -24 -16 -52 -4 -29 -13 -62 -21 -73
-7 -11 -16 -45 -20 -75 -3 -30 -13 -65 -20 -77 -9 -15 -14 -52 -14 -108 0 -68
-3 -85 -15 -85 -8 0 -19 9 -25 20 -6 11 -17 20 -24 20 -15 0 -150 73 -176 95
-8 7 -26 16 -40 20 -14 4 -33 14 -43 23 -10 9 -41 19 -70 23 -29 3 -99 20
-157 38 -147 45 -296 53 -401 22 -84 -25 -192 -65 -229 -85 -14 -7 -38 -16
-55 -20 -16 -4 -37 -14 -45 -21 -9 -8 -38 -26 -65 -41 -59 -31 -385 -342 -385
-366 0 -6 -15 -32 -34 -58 -18 -26 -37 -58 -41 -71 -4 -13 -13 -31 -20 -39 -7
-8 -16 -29 -20 -47 -3 -17 -13 -37 -20 -43 -8 -7 -17 -28 -20 -49 -4 -20 -12
-54 -20 -76 -7 -22 -19 -67 -25 -100 -7 -33 -18 -71 -25 -85 -7 -14 -15 -56
-18 -95 -7 -91 -12 -103 -50 -110 -18 -3 -52 -10 -77 -15 -25 -5 -79 -14 -120
-20 -41 -6 -104 -17 -140 -25 -36 -8 -87 -17 -114 -20 -47 -6 -71 -16 -182
-74 -89 -46 -224 -159 -297 -249 -58 -72 -119 -185 -138 -255 -6 -23 -17 -50
-25 -61 -8 -11 -14 -33 -14 -49 0 -15 -7 -41 -15 -58 -9 -16 -19 -60 -22 -97
-4 -42 -13 -76 -25 -91 -24 -32 -24 -134 1 -221 10 -36 21 -86 25 -111 24
-164 262 -404 476 -479 19 -7 72 -18 117 -26 45 -7 91 -18 103 -24 35 -19 158
-18 221 0 81 24 89 17 89 -78 1 -48 6 -86 15 -102 8 -14 14 -42 15 -64 0 -21
8 -53 19 -70 10 -17 21 -51 25 -75 4 -24 13 -53 21 -64 8 -12 15 -30 15 -40 0
-10 9 -35 19 -55 11 -20 30 -62 44 -92 41 -91 77 -163 103 -205 13 -22 29 -51
36 -65 32 -67 186 -230 216 -230 5 0 15 -7 22 -16 8 -8 27 -22 44 -29 17 -8
38 -19 46 -23 8 -5 31 -15 50 -22 19 -6 58 -21 85 -32 28 -11 102 -36 165 -54
63 -19 124 -38 135 -43 109 -51 109 -51 314 -51 156 1 200 4 215 15 11 8 31
15 45 15 14 0 40 9 56 20 17 11 40 20 51 20 12 0 32 8 45 18 13 10 35 23 49
30 14 7 43 23 65 37 22 13 54 31 70 39 48 26 240 154 298 200 142 113 179 146
312 285 l70 73 39 -43 c21 -24 49 -60 62 -80 12 -20 55 -65 94 -100 111 -100
260 -246 260 -256 0 -8 98 -95 158 -140 13 -10 31 -25 40 -34 10 -9 28 -20 41
-24 14 -4 45 -22 70 -39 79 -56 213 -111 301 -125 25 -4 54 -12 65 -18 19 -10
48 -14 225 -29 94 -8 336 12 364 29 12 7 41 19 66 26 82 24 254 114 323 168
99 80 228 201 258 244 14 20 48 66 75 101 67 85 144 202 144 216 0 7 9 29 20
49 11 21 20 46 20 56 0 10 7 31 14 46 8 15 20 50 26 77 7 27 19 64 27 83 22
48 14 376 -11 440 -20 55 -15 61 32 34 20 -12 66 -36 102 -54 36 -18 94 -49
130 -70 70 -40 248 -104 320 -115 25 -4 52 -13 61 -21 9 -7 38 -15 65 -17 27
-3 94 -11 148 -20 137 -22 240 -20 334 5 42 12 84 25 92 30 8 5 22 12 30 15
141 51 365 227 443 349 17 28 35 52 40 53 28 13 129 290 142 392 4 30 13 70
21 89 46 111 -7 340 -104 448 -20 23 -48 58 -62 78 -34 51 -101 125 -112 125
-5 0 -44 19 -86 42 -42 24 -97 50 -122 58 -54 18 -55 26 -13 76 18 22 43 55
56 74 13 19 42 62 65 95 23 33 42 69 42 80 0 11 7 30 15 42 8 11 26 67 41 123
40 154 33 282 -23 443 -39 112 -79 182 -130 229 -12 12 -35 40 -50 62 -38 58
-206 224 -245 242 -18 9 -49 25 -70 37 -103 62 -133 78 -169 87 -21 6 -41 15
-44 19 -3 5 -24 12 -48 16 -23 4 -68 16 -99 26 -34 11 -86 19 -125 19 -37 0
-93 7 -123 15 -62 17 -202 20 -229 6 -10 -6 -71 -15 -137 -20 -66 -6 -142 -17
-169 -26 -28 -8 -64 -15 -80 -15 -17 0 -39 -6 -50 -14 -27 -18 -123 -49 -133
-42 -5 3 -12 39 -15 79 -4 41 -11 86 -17 101 -5 14 -15 68 -21 119 -6 50 -17
99 -25 108 -8 8 -14 22 -14 30 -1 17 -48 123 -74 164 -97 152 -141 211 -220
288 -106 104 -119 116 -145 131 -11 6 -41 23 -67 39 -26 15 -57 30 -69 33 -25
6 -93 66 -117 102 -15 22 -15 26 0 53 10 16 22 29 28 29 7 0 23 15 37 33 14
17 50 59 81 91 31 33 78 92 104 130 26 39 54 78 62 87 17 19 49 62 64 89 13
22 83 138 113 188 48 80 72 143 79 210 4 31 13 66 20 77 7 11 16 40 20 64 7
45 54 111 79 111 7 0 23 8 36 19 13 10 39 22 56 25 18 4 35 12 39 17 3 5 20
16 37 24 34 16 55 29 131 83 26 17 50 32 53 32 24 0 390 286 407 318 15 28 87
113 149 174 31 32 57 64 57 71 0 6 24 37 53 67 45 48 70 82 112 151 6 9 34 51
63 93 28 43 52 81 52 85 0 4 9 16 20 26 11 10 20 22 20 26 0 5 18 35 40 66 22
32 40 63 40 69 0 6 6 17 14 23 8 7 18 25 21 41 3 15 15 45 26 66 10 21 19 45
19 54 0 9 6 24 14 35 7 11 16 33 20 49 4 16 16 41 27 54 10 14 19 34 19 46 0
11 8 35 17 51 9 17 19 48 22 70 6 36 9 40 45 47 22 5 44 12 50 17 6 5 38 16
71 25 79 19 150 43 203 67 23 10 53 19 65 19 43 1 102 44 105 76 3 32 -39 73
-173 169 -30 22 -77 57 -103 77 -27 20 -60 40 -75 43 -15 4 -27 11 -27 15 0 4
-16 17 -35 29 -54 31 -53 44 9 108 60 63 91 98 119 135 9 12 36 48 60 78 55
72 61 83 98 160 16 36 34 72 39 80 28 46 68 129 74 153 3 15 11 27 16 27 6 0
10 6 10 14 0 7 8 24 18 37 28 37 76 222 69 270 -8 58 -23 72 -72 66 -51 -6
-150 -43 -171 -65 -16 -15 -57 -41 -101 -61 -12 -6 -31 -19 -43 -31 -29 -29
-50 -26 -50 9 0 16 6 34 14 40 8 7 17 24 20 39 4 15 16 50 26 77 11 28 35 91
54 141 19 50 38 115 41 145 4 30 16 85 27 123 27 92 21 211 -13 238 -28 24
-80 23 -112 -2 -14 -11 -33 -20 -42 -20 -31 0 -187 -111 -257 -184 -70 -71
-92 -79 -69 -23 32 78 59 227 67 368 l7 127 -28 36 c-31 41 -60 46 -96 17 -13
-10 -35 -22 -49 -26 -29 -9 -210 -189 -210 -209 0 -7 -9 -23 -20 -36 -11 -13
-20 -27 -20 -31 0 -10 -42 -72 -64 -94 -9 -9 -16 -22 -16 -29 0 -7 -11 -23
-25 -36 -23 -22 -25 -22 -25 -4 0 10 -5 109 -10 219 -8 180 -12 206 -34 256
-23 54 -40 69 -72 69 -24 0 -126 -109 -162 -172 -18 -32 -38 -60 -43 -64 -5
-3 -26 -39 -45 -80 -20 -41 -40 -77 -45 -80 -5 -3 -9 -12 -9 -21 0 -21 -61
-113 -75 -113 -18 0 -35 62 -40 145 -5 74 -31 180 -60 235 -7 14 -15 41 -19
61 -4 21 -13 42 -21 49 -8 7 -15 18 -15 24 0 17 -91 106 -108 106 -29 0 -92
-34 -98 -52 -3 -10 -14 -22 -24 -28 -10 -5 -21 -22 -25 -37 -3 -16 -12 -35
-20 -43 -7 -8 -16 -26 -20 -40 -4 -14 -16 -36 -26 -49 -11 -13 -19 -29 -19
-36 0 -7 -7 -26 -15 -41 -8 -16 -15 -37 -15 -47 0 -10 -15 -64 -34 -120 -65
-197 -88 -281 -95 -357 -5 -43 -12 -83 -16 -90 -5 -7 -7 -34 -6 -60 1 -27 -6
-74 -15 -106 -23 -78 -32 -264 -33 -684 -1 -302 1 -348 15 -368 15 -22 23 -68
28 -178 2 -28 6 -55 9 -61 9 -14 -49 -67 -66 -60 -11 4 -17 32 -22 104 -4 54
-12 106 -17 116 -5 10 -14 61 -19 113 -5 52 -15 107 -20 122 -6 15 -17 56 -24
92 -8 36 -23 99 -34 140 -11 41 -25 95 -31 120 -7 25 -20 77 -30 115 -10 39
-21 89 -24 112 -4 24 -13 57 -20 75 -21 47 -46 126 -56 176 -5 24 -16 53 -25
65 -8 12 -15 35 -15 52 0 16 -9 50 -20 74 -11 24 -20 51 -20 60 0 9 -9 33 -20
54 -11 20 -20 43 -20 50 0 7 -9 29 -20 50 -11 20 -20 43 -20 50 0 6 -11 33
-25 59 -14 26 -25 56 -25 66 0 11 -7 25 -15 32 -8 7 -15 20 -15 29 0 9 -7 27
-14 41 -16 28 -84 159 -104 199 -7 14 -17 33 -23 41 -5 8 -16 30 -24 48 -9 17
-20 32 -25 32 -6 0 -10 7 -10 15 0 8 -8 23 -19 34 -10 10 -36 43 -58 72 -58
78 -198 219 -218 219 -9 0 -34 14 -55 30 -21 17 -39 30 -41 29 -2 0 -16 -8
-31 -17z m114 -181 c37 -38 78 -88 93 -111 14 -22 41 -57 59 -78 34 -37 81
-119 156 -267 23 -44 47 -91 55 -105 8 -14 15 -32 15 -41 0 -9 7 -22 15 -29 8
-7 15 -20 15 -29 0 -9 9 -34 20 -56 11 -22 20 -46 20 -55 0 -9 8 -27 17 -40
20 -28 49 -104 64 -165 5 -22 16 -53 23 -70 20 -46 46 -125 56 -171 5 -22 15
-56 24 -75 25 -57 47 -131 59 -194 7 -33 16 -66 21 -74 5 -8 15 -41 21 -75 7
-34 17 -74 23 -91 19 -55 43 -159 52 -224 6 -36 16 -85 24 -110 8 -26 18 -86
22 -136 3 -49 11 -101 15 -114 5 -13 14 -65 19 -116 5 -51 12 -100 16 -109 4
-10 1 -16 -9 -16 -15 0 -67 88 -67 112 0 6 -15 34 -34 62 -18 28 -49 80 -67
116 -19 36 -41 72 -51 80 -19 18 -88 145 -88 164 0 7 -9 21 -20 31 -11 10 -20
25 -20 33 0 9 -27 56 -60 104 -33 49 -60 95 -60 102 0 7 -8 24 -19 37 -10 13
-21 34 -25 46 -4 11 -13 27 -21 33 -8 7 -15 23 -15 35 0 12 -9 34 -20 48 -11
14 -20 29 -20 35 0 5 -8 20 -19 33 -10 13 -22 38 -25 56 -4 17 -14 37 -22 44
-8 6 -14 21 -14 33 0 12 -9 38 -20 59 -11 20 -20 43 -20 50 0 7 -9 31 -21 52
-12 22 -25 54 -29 70 -15 53 -40 119 -55 147 -8 14 -15 39 -15 55 0 15 -9 42
-19 59 -11 18 -24 58 -29 90 -5 33 -14 73 -20 89 -35 103 -74 283 -78 360 -2
28 -7 91 -12 140 -6 70 -9 228 -3 243 5 13 38 -10 93 -67z m1546 -188 c25 -39
57 -127 67 -188 4 -22 12 -48 17 -58 17 -33 31 -197 32 -377 1 -244 -14 -726
-26 -780 -5 -25 -13 -83 -19 -130 -6 -47 -17 -116 -25 -155 -8 -38 -17 -95
-20 -125 -3 -30 -14 -76 -25 -102 -10 -26 -19 -56 -19 -66 0 -28 -48 -66 -138
-109 -42 -20 -95 -51 -118 -70 -60 -48 -70 -45 -77 30 -35 363 -29 1133 8
1252 9 28 14 65 11 84 -5 32 0 64 24 161 6 25 17 70 24 100 8 30 21 72 30 92
9 21 16 45 16 55 0 10 7 31 15 47 8 16 18 47 22 70 3 22 15 55 25 71 10 17 18
37 18 47 0 20 50 118 61 118 4 0 13 16 19 35 16 47 47 47 78 -2z m-2073 -93
c8 0 15 -4 15 -8 0 -5 18 -21 40 -38 237 -172 360 -304 360 -385 0 -11 9 -45
20 -76 11 -32 20 -66 20 -78 0 -11 7 -33 16 -50 16 -32 46 -111 69 -185 20
-66 41 -121 59 -155 9 -16 16 -36 16 -43 0 -13 43 -114 61 -142 5 -8 14 -26
19 -40 15 -37 51 -103 66 -120 7 -8 15 -27 19 -42 4 -15 13 -32 21 -39 8 -6
14 -21 14 -34 0 -12 9 -30 20 -40 11 -10 20 -25 20 -34 0 -9 8 -28 17 -41 18
-25 37 -58 67 -115 9 -16 25 -43 36 -60 11 -16 29 -49 39 -71 11 -23 24 -45
30 -48 6 -4 11 -15 11 -25 0 -10 9 -30 20 -44 11 -14 20 -32 20 -40 0 -7 9
-22 20 -32 11 -10 22 -27 26 -39 4 -11 24 -43 45 -70 22 -27 39 -56 39 -66 0
-10 7 -23 15 -30 8 -7 15 -20 15 -29 1 -9 25 -56 55 -106 29 -49 68 -119 85
-155 17 -36 38 -77 46 -92 8 -15 19 -58 24 -95 35 -254 35 -264 11 -248 -6 3
-11 15 -11 25 0 10 -6 23 -13 27 -7 4 -24 26 -37 48 -13 22 -44 64 -67 93 -24
29 -43 57 -43 61 0 5 -15 27 -32 50 -18 22 -46 62 -63 88 -34 55 -40 63 -77
105 -16 17 -28 35 -28 40 0 5 -14 28 -30 51 -69 96 -233 337 -239 352 -2 6
-15 23 -27 38 -13 16 -24 34 -24 41 0 7 -16 29 -35 50 -19 21 -37 46 -40 55
-3 10 -14 26 -25 36 -11 10 -20 24 -20 31 0 7 -6 17 -13 21 -15 10 -47 58 -64
96 -7 15 -16 27 -21 27 -6 0 -13 12 -16 26 -4 14 -22 47 -40 73 -18 26 -37 57
-40 69 -4 12 -12 22 -17 22 -5 0 -14 11 -19 24 -5 14 -25 48 -45 76 -20 28
-40 61 -46 73 -5 12 -20 40 -34 62 -13 22 -29 51 -34 65 -6 14 -15 32 -21 40
-19 31 -70 137 -70 147 0 6 -6 16 -14 22 -8 7 -17 27 -20 45 -4 19 -13 39 -21
46 -8 7 -15 17 -15 23 0 5 -8 28 -19 51 -10 23 -23 59 -29 81 -17 66 -44 139
-57 155 -7 8 -15 39 -18 68 -3 29 -13 65 -21 80 -38 68 -74 330 -50 355 4 3
19 0 35 -8 15 -8 35 -15 44 -15z m2683 -50 c2 -25 5 -159 8 -299 4 -216 2
-262 -12 -310 -9 -31 -19 -96 -22 -146 -2 -49 -9 -98 -14 -108 -5 -10 -15 -53
-23 -95 -7 -42 -20 -97 -28 -122 -37 -114 -57 -187 -57 -208 0 -12 -9 -39 -20
-59 -11 -21 -20 -54 -20 -73 0 -19 -7 -43 -15 -53 -7 -11 -17 -37 -21 -60 -3
-23 -12 -51 -19 -62 -7 -11 -16 -38 -20 -60 -9 -52 -22 -75 -42 -75 -20 0
-122 -47 -145 -67 -10 -9 -24 -13 -32 -10 -17 7 -14 43 10 112 7 22 18 81 23
130 5 50 14 108 19 130 11 42 33 373 38 560 3 132 19 251 38 281 8 11 17 42
21 67 4 25 13 52 21 58 8 6 14 19 14 28 0 20 55 136 68 145 6 3 13 20 17 36 4
17 11 30 16 30 5 0 14 12 20 28 16 42 51 114 69 142 9 14 29 44 44 68 36 57
60 54 64 -8z m557 -67 c-4 -38 -11 -84 -16 -103 -5 -19 -9 -55 -9 -80 0 -25
-9 -71 -20 -103 -11 -31 -20 -72 -20 -92 0 -19 -9 -52 -20 -72 -11 -21 -20
-47 -20 -58 0 -12 -9 -38 -20 -60 -11 -22 -20 -48 -20 -58 0 -10 -6 -30 -14
-45 -8 -15 -17 -46 -21 -67 -4 -22 -13 -50 -21 -62 -7 -12 -16 -41 -20 -65 -3
-24 -12 -52 -19 -63 -6 -11 -15 -38 -19 -60 -4 -22 -16 -54 -27 -71 -10 -17
-19 -39 -19 -48 0 -9 -9 -33 -20 -53 -11 -21 -20 -44 -20 -51 0 -8 -7 -26 -15
-40 -8 -15 -20 -38 -25 -52 -6 -14 -21 -43 -35 -65 -13 -22 -29 -51 -35 -65
-5 -14 -17 -36 -26 -50 -8 -14 -22 -39 -30 -57 -17 -39 -40 -53 -77 -46 -16 3
-37 -1 -53 -12 -50 -33 -67 8 -28 70 6 11 15 40 19 65 4 25 13 54 20 66 7 11
16 47 20 80 5 32 14 68 21 79 7 11 16 40 20 65 4 25 12 56 19 70 7 14 16 48
20 75 4 28 13 61 20 75 7 14 16 61 20 105 4 43 12 91 17 105 6 14 14 63 18
109 6 60 15 92 29 112 12 16 21 33 21 39 0 14 83 158 132 230 21 30 60 87 85
125 54 80 159 195 180 195 12 0 13 -13 8 -67z m-3680 -154 c28 -16 68 -38 90
-49 22 -11 54 -29 70 -40 17 -11 44 -27 60 -35 77 -38 109 -69 117 -114 4 -24
12 -49 18 -57 7 -7 18 -35 25 -61 24 -86 44 -138 93 -243 12 -25 26 -56 32
-70 6 -14 22 -43 35 -65 13 -22 40 -71 60 -110 20 -38 47 -88 60 -110 13 -22
38 -68 55 -102 18 -35 36 -63 40 -63 8 0 60 -78 60 -90 0 -5 8 -16 18 -26 9
-9 22 -29 27 -43 16 -40 46 -88 93 -150 24 -31 52 -73 63 -93 11 -21 24 -38
29 -38 6 0 10 -6 10 -13 0 -7 11 -23 25 -35 14 -12 25 -26 25 -31 0 -10 35
-65 58 -91 7 -8 33 -46 57 -85 25 -38 48 -74 53 -80 31 -38 101 -145 106 -163
4 -12 11 -22 15 -22 4 0 23 -24 41 -52 18 -29 40 -60 47 -68 62 -68 87 -99 98
-125 8 -16 40 -67 72 -111 32 -45 72 -100 88 -123 17 -23 49 -66 73 -96 23
-29 42 -59 42 -66 0 -7 12 -30 27 -52 29 -41 32 -73 18 -157 -16 -95 -105
-138 -105 -51 0 10 -9 26 -20 36 -11 10 -20 23 -20 28 0 20 -133 209 -251 357
-41 52 -84 109 -95 125 -10 17 -24 35 -30 40 -6 6 -35 39 -64 75 -28 36 -98
112 -153 170 -158 164 -217 229 -217 239 0 5 -36 46 -80 90 -44 44 -80 86 -80
92 0 7 -8 22 -19 33 -28 32 -91 125 -91 135 0 10 -34 52 -62 79 -10 9 -18 21
-18 27 0 10 -42 75 -67 105 -36 42 -93 120 -93 126 0 14 -94 146 -107 151 -7
3 -13 11 -13 18 0 7 -18 35 -39 63 -22 27 -53 73 -71 103 -41 71 -42 74 -76
144 -16 33 -35 64 -41 68 -7 4 -13 16 -13 25 0 9 -18 52 -40 95 -22 43 -40 84
-40 91 0 7 -8 20 -19 30 -11 10 -21 37 -24 66 -3 27 -13 63 -22 80 -17 32 -32
190 -27 273 4 58 21 61 97 16z m4108 -124 c-5 -69 -29 -179 -60 -275 -8 -25
-21 -70 -28 -100 -7 -30 -20 -72 -29 -92 -9 -21 -16 -48 -16 -60 0 -13 -9 -34
-20 -48 -11 -14 -20 -33 -20 -43 0 -10 -8 -35 -19 -55 -88 -176 -133 -255
-157 -277 -5 -5 -32 -44 -60 -85 -27 -41 -54 -79 -60 -85 -6 -5 -27 -36 -48
-67 -20 -32 -40 -58 -45 -58 -4 0 -15 -17 -24 -39 -29 -64 -49 -77 -105 -64
-66 15 -145 46 -149 59 -2 6 8 22 21 37 13 14 27 36 31 47 3 11 10 20 15 20 5
0 11 13 15 29 3 16 12 35 20 41 8 6 17 24 20 40 3 16 13 34 21 41 8 6 14 17
14 23 0 7 8 28 19 49 10 20 22 52 25 71 4 19 13 39 20 45 7 6 16 30 20 52 4
22 13 51 21 63 8 12 19 42 24 67 5 24 22 76 36 114 15 39 33 93 40 120 7 28
23 70 35 94 27 54 225 253 308 309 33 23 64 47 67 53 4 5 21 9 38 7 29 -3 32
-6 30 -33z m-4533 -201 c25 -4 52 -13 61 -20 8 -8 31 -17 50 -20 81 -16 209
-112 209 -158 0 -13 8 -34 19 -47 10 -13 22 -35 26 -49 4 -14 13 -32 20 -40 7
-8 16 -26 20 -40 4 -14 13 -32 20 -40 11 -13 44 -82 69 -140 3 -8 24 -40 47
-70 22 -30 49 -70 61 -87 11 -18 24 -33 29 -33 5 0 9 -5 9 -12 0 -12 46 -85
66 -103 6 -5 41 -55 78 -110 37 -55 82 -120 101 -145 18 -25 34 -49 34 -54 1
-4 18 -29 39 -55 21 -25 60 -80 87 -121 28 -41 55 -79 61 -85 5 -5 28 -36 49
-67 21 -32 42 -58 47 -58 12 0 55 -47 83 -90 13 -19 47 -60 76 -90 91 -94 234
-251 243 -268 5 -9 19 -26 30 -38 39 -38 83 -93 119 -146 19 -29 52 -71 72
-93 20 -22 53 -65 73 -95 20 -30 42 -59 49 -65 11 -9 40 -46 130 -168 18 -24
38 -58 44 -75 6 -17 17 -33 25 -36 25 -9 17 -55 -10 -62 -14 -3 -32 -14 -42
-25 -26 -28 -66 -24 -99 11 -17 17 -59 52 -94 78 -60 44 -594 569 -654 643
-91 113 -149 180 -203 233 -33 34 -100 111 -149 171 -48 61 -93 115 -99 120
-24 22 -96 113 -96 122 0 5 -20 29 -44 53 -24 24 -54 63 -67 87 -13 24 -26 43
-30 43 -4 0 -22 25 -40 56 -19 32 -51 76 -71 99 -21 23 -38 47 -38 53 0 5 -19
34 -42 63 -75 91 -98 123 -109 152 -6 15 -14 27 -18 27 -19 0 -111 139 -142
213 -6 15 -14 27 -18 27 -10 0 -61 79 -61 94 0 7 -9 21 -19 30 -11 10 -23 31
-26 46 -3 16 -13 31 -21 34 -8 3 -14 11 -14 18 -1 7 -9 31 -20 53 -11 22 -19
47 -20 55 0 8 -9 32 -20 53 -16 30 -20 53 -18 105 3 61 5 67 28 73 14 4 34 5
45 3 11 -2 40 -7 65 -10z m4785 -414 c3 -5 -1 -23 -10 -39 -8 -17 -15 -40 -15
-53 0 -20 -65 -169 -90 -208 -6 -8 -15 -26 -20 -40 -6 -14 -14 -32 -20 -40 -5
-8 -33 -62 -61 -120 -29 -58 -58 -112 -65 -120 -8 -8 -33 -40 -56 -70 -59 -77
-170 -200 -191 -211 -19 -11 -79 5 -107 27 -15 12 -108 56 -143 68 -16 5 -16
8 -3 35 9 16 20 31 25 33 15 5 288 405 308 449 16 38 167 155 256 199 26 13
55 32 64 42 9 10 20 18 25 18 6 0 21 9 35 20 28 21 58 26 68 10z m-5159 -100
c29 -10 69 -31 90 -45 22 -15 65 -40 97 -56 32 -16 66 -38 77 -49 11 -11 25
-20 32 -20 32 0 211 -195 256 -280 7 -14 32 -50 55 -80 59 -78 87 -119 87
-130 0 -5 8 -15 18 -22 19 -15 90 -100 114 -139 9 -14 38 -50 66 -80 27 -29
61 -71 75 -92 15 -22 73 -89 131 -150 57 -62 130 -143 161 -182 32 -38 66 -75
76 -80 10 -6 35 -30 56 -55 48 -58 184 -209 246 -274 27 -28 55 -63 63 -78 8
-16 18 -28 23 -28 5 0 87 -78 182 -173 96 -95 194 -189 219 -209 50 -41 48
-59 -4 -34 -19 9 -40 16 -48 16 -8 0 -59 23 -114 51 -54 29 -112 59 -128 67
-33 17 -158 100 -166 110 -10 13 -86 62 -97 62 -6 0 -16 7 -23 15 -6 8 -36 31
-66 50 -30 20 -74 55 -97 78 -23 22 -69 63 -102 91 -33 28 -71 61 -85 74 -25
23 -137 108 -168 127 -64 39 -472 452 -472 477 0 6 -19 29 -42 52 -55 53 -170
201 -204 261 -17 30 -44 64 -116 149 -21 24 -38 50 -38 58 0 9 -7 21 -16 28
-8 8 -22 27 -30 44 -8 17 -25 49 -38 71 -79 134 -136 259 -136 303 0 12 -5 31
-12 41 -13 21 -5 51 14 51 7 0 36 -9 64 -20z m-906 -685 c77 -6 156 -25 250
-62 19 -7 59 -18 88 -23 30 -5 58 -13 64 -16 6 -4 36 -13 67 -20 31 -7 79 -20
106 -29 52 -17 71 -25 165 -68 30 -14 82 -35 115 -48 33 -12 96 -39 140 -60
140 -65 172 -79 181 -79 7 0 71 -30 222 -104 26 -13 102 -81 192 -171 134
-135 292 -275 356 -315 44 -28 21 -34 -117 -32 -134 3 -167 10 -274 57 -16 8
-46 17 -65 21 -19 3 -44 13 -55 20 -11 7 -40 16 -65 20 -25 4 -61 15 -80 26
-19 10 -43 18 -53 18 -10 0 -30 6 -45 14 -15 7 -44 16 -64 20 -50 9 -68 37
-68 106 -1 70 -28 117 -100 171 -36 27 -64 40 -89 41 -72 4 -146 -4 -166 -18
-10 -8 -27 -14 -37 -14 -9 0 -22 -8 -27 -19 -19 -35 -57 -35 -119 0 -31 18
-59 35 -62 38 -9 11 -86 61 -93 61 -4 0 -29 15 -55 33 -26 18 -68 45 -94 60
-27 15 -48 31 -48 36 0 4 -21 22 -47 39 -65 42 -117 94 -161 161 -20 31 -51
73 -70 94 -26 31 -31 41 -22 53 8 9 18 11 29 5 9 -5 54 -12 101 -16z m5027
-25 c21 -11 46 -20 55 -20 19 0 71 -22 193 -81 44 -22 86 -39 93 -39 7 0 35
-16 63 -35 27 -20 61 -40 73 -45 13 -5 39 -22 57 -37 19 -16 45 -34 59 -41 63
-32 91 -50 145 -92 32 -25 79 -56 104 -70 56 -30 64 -63 16 -68 -16 -2 -43 -9
-60 -16 -47 -21 -158 -56 -177 -56 -25 0 -141 -55 -160 -76 -9 -11 -24 -44
-34 -74 -9 -30 -23 -62 -30 -71 -8 -8 -14 -20 -14 -26 0 -6 -9 -22 -21 -37
-32 -41 -99 -176 -99 -201 0 -12 -9 -34 -20 -48 -11 -14 -20 -29 -20 -33 0
-11 -88 -159 -132 -224 -21 -30 -38 -60 -38 -66 0 -6 -9 -19 -20 -29 -11 -10
-20 -22 -20 -27 0 -10 -30 -54 -81 -118 -19 -25 -45 -61 -57 -81 -12 -20 -37
-53 -55 -72 -17 -20 -52 -63 -77 -97 -85 -118 -279 -304 -399 -385 -24 -16
-45 -35 -48 -41 -2 -7 -16 -15 -31 -19 -14 -3 -48 -24 -75 -46 -27 -21 -55
-39 -62 -39 -7 0 -18 -6 -24 -14 -15 -18 -87 -56 -105 -56 -7 0 -24 -9 -38
-19 -13 -11 -36 -23 -51 -26 -14 -4 -31 -13 -38 -21 -6 -8 -19 -14 -29 -14 -9
0 -29 -9 -43 -20 -14 -11 -31 -20 -38 -20 -12 0 -102 -39 -151 -65 -14 -8 -39
-15 -55 -15 -15 0 -45 -9 -66 -20 -20 -11 -47 -20 -59 -20 -13 0 -54 -6 -93
-14 -38 -8 -104 -18 -146 -21 -82 -8 -104 2 -76 33 8 9 24 35 34 57 11 22 28
54 37 70 22 41 20 72 -4 80 -27 8 -33 3 -66 -53 -33 -57 -56 -89 -108 -148
l-39 -44 -106 0 c-76 0 -126 6 -176 20 -38 11 -84 20 -100 20 -17 0 -48 9 -70
20 -22 11 -56 20 -76 20 -20 0 -42 7 -49 15 -6 7 -33 17 -58 21 -26 3 -61 15
-78 25 -17 11 -39 19 -49 19 -9 0 -28 9 -42 20 -14 11 -34 20 -44 20 -10 0
-20 4 -24 9 -3 5 -22 15 -43 22 -20 6 -44 18 -53 26 -9 7 -34 17 -55 20 -22 3
-46 11 -54 17 -8 7 -40 23 -70 36 -86 38 -100 70 -37 89 51 15 140 55 167 74
13 9 28 17 32 17 5 0 31 16 58 35 27 19 53 35 57 35 11 0 87 53 96 67 4 7 14
13 22 13 7 0 24 9 37 20 53 46 126 100 134 100 5 0 48 37 95 83 48 45 108 102
134 126 26 23 75 74 107 112 73 84 86 92 119 74 13 -8 35 -19 49 -26 14 -6 39
-17 55 -25 64 -31 192 -55 325 -61 133 -6 136 -6 189 22 32 16 86 59 130 104
82 83 106 131 121 239 4 31 13 93 20 136 11 66 10 109 -3 270 -28 329 -30 386
-11 408 10 10 23 18 31 18 19 0 140 57 148 70 3 5 17 10 29 10 13 0 45 17 72
39 27 21 72 51 101 65 28 15 57 34 64 42 6 8 17 14 24 14 7 0 24 9 38 20 14
11 31 20 39 20 7 0 39 18 71 40 31 22 63 40 71 40 7 0 25 9 39 20 14 11 31 20
37 20 7 0 31 9 54 19 44 21 117 46 181 63 22 6 58 17 80 24 64 20 159 17 202
-6z m-4887 -415 c25 -13 59 -30 76 -39 17 -8 36 -22 44 -30 7 -9 19 -16 27
-16 8 0 33 -15 56 -33 23 -19 50 -37 60 -40 10 -4 49 -25 88 -47 69 -41 83
-62 57 -88 -8 -8 -13 -50 -14 -115 -3 -188 -1 -177 -26 -177 -13 0 -31 7 -41
15 -11 7 -38 17 -60 20 -23 4 -56 16 -73 26 -17 10 -43 19 -58 19 -15 0 -39 6
-54 14 -15 7 -48 16 -75 19 -26 4 -57 13 -70 21 -12 8 -39 18 -59 21 -21 4
-42 13 -48 20 -6 8 -26 17 -43 20 -30 6 -105 40 -152 68 -81 49 -195 132 -195
142 0 15 59 55 81 55 8 0 37 12 64 25 28 14 59 25 70 25 11 0 29 6 40 14 11 7
35 17 53 21 18 4 45 13 60 21 15 8 38 14 52 14 14 1 39 7 55 15 39 17 33 18
85 -10z m754 -140 c15 -14 36 -25 47 -25 10 0 19 -6 19 -14 0 -8 8 -22 18 -32
46 -47 46 -527 -1 -584 -47 -56 -82 -70 -175 -70 -76 0 -89 2 -100 20 -7 11
-17 20 -23 20 -22 0 -54 56 -67 115 -15 68 -14 243 1 390 8 86 13 103 36 127
14 16 31 28 37 28 6 0 19 9 29 20 13 14 34 20 79 23 33 2 64 4 67 5 3 1 18 -9
33 -23z m321 -380 c39 -15 97 -33 130 -39 33 -7 69 -18 80 -24 11 -7 40 -19
65 -28 148 -52 168 -56 259 -57 92 -2 125 -14 84 -33 -26 -11 -484 -16 -638
-7 -122 8 -130 9 -127 28 4 24 4 29 -4 124 l-6 73 43 -5 c24 -2 76 -17 114
-32z m-734 -155 c30 0 79 -49 79 -80 0 -27 67 -105 131 -152 36 -27 197 -26
232 2 14 11 30 20 35 20 6 0 26 18 45 40 l34 40 79 0 c44 0 118 -5 164 -11
185 -25 580 0 695 45 22 8 48 15 57 16 10 0 36 9 58 21 27 14 49 19 66 15 25
-7 126 -80 132 -97 4 -10 -71 -49 -95 -49 -11 0 -36 -9 -58 -20 -22 -11 -48
-20 -60 -20 -11 0 -37 -9 -58 -20 -20 -11 -52 -20 -69 -20 -18 0 -51 -9 -74
-19 -23 -10 -65 -22 -95 -26 -30 -3 -76 -13 -104 -20 -87 -24 -243 -45 -409
-56 -203 -14 -593 -6 -656 14 -25 8 -87 17 -139 21 -52 4 -106 13 -121 21 -15
8 -52 19 -81 24 -63 10 -186 44 -244 65 -22 8 -49 15 -60 16 -11 0 -29 6 -40
14 -11 7 -36 16 -56 20 -21 4 -48 15 -62 26 -14 11 -30 20 -35 20 -6 0 -24 8
-41 18 -39 21 -36 46 4 48 17 1 48 7 70 14 22 7 103 17 180 22 77 5 157 16
178 24 20 8 59 14 85 15 26 0 65 4 87 9 22 5 60 7 84 4 24 -2 52 -4 62 -4z
m1957 -250 c7 0 15 -6 18 -14 3 -8 17 -17 32 -21 15 -4 35 -15 45 -26 10 -10
27 -19 37 -19 48 0 -12 -47 -80 -63 -14 -3 -41 -22 -60 -41 -19 -20 -40 -36
-46 -36 -6 0 -19 -8 -28 -19 -10 -11 -38 -21 -68 -25 -27 -4 -60 -13 -72 -21
-11 -7 -37 -16 -56 -20 -19 -4 -42 -13 -51 -21 -8 -8 -35 -18 -60 -23 -24 -5
-75 -22 -114 -36 -38 -15 -97 -33 -130 -40 -100 -21 -198 -45 -245 -60 -25 -7
-78 -16 -118 -20 -40 -3 -94 -13 -120 -21 -26 -7 -85 -17 -132 -20 -47 -4
-100 -13 -119 -20 -18 -8 -58 -14 -89 -14 -30 0 -83 -4 -116 -10 -131 -22
-355 -29 -412 -14 -30 8 -87 17 -127 20 -40 4 -103 15 -142 25 -38 11 -83 19
-100 19 -16 0 -38 7 -48 15 -11 7 -38 17 -60 20 -23 4 -56 16 -73 26 -17 10
-41 19 -54 19 -12 0 -33 9 -47 20 -14 11 -32 20 -39 20 -60 0 120 87 216 105
19 3 49 12 65 20 42 18 200 48 340 65 59 6 104 7 130 0 22 -5 60 -10 85 -10
25 0 67 -7 94 -15 69 -21 459 -21 569 0 43 8 120 15 171 15 52 0 115 7 146 15
30 9 87 19 126 24 39 4 93 15 120 24 125 41 152 49 196 60 26 7 53 18 60 25 6
6 24 12 38 12 14 0 42 9 63 20 20 11 42 20 48 20 18 0 136 58 144 70 5 8 14 5
29 -9 12 -12 28 -21 34 -21z m266 -166 c9 -3 16 -14 16 -23 -1 -24 -152 -180
-255 -261 -49 -39 -113 -94 -141 -121 -29 -27 -57 -49 -63 -49 -5 0 -34 -20
-64 -44 -76 -61 -155 -116 -168 -116 -7 0 -36 -16 -65 -35 -29 -20 -70 -42
-91 -49 -21 -8 -51 -21 -68 -30 -16 -9 -38 -16 -47 -16 -9 0 -19 -4 -23 -9 -3
-5 -30 -17 -60 -25 -30 -9 -57 -21 -60 -26 -3 -6 -17 -10 -31 -10 -14 0 -38
-7 -54 -15 -18 -9 -95 -21 -202 -30 -95 -8 -185 -20 -199 -25 -16 -7 -134 -10
-330 -7 -328 3 -487 20 -557 58 -20 10 -49 19 -64 19 -32 0 -43 13 -25 32 7 7
21 27 31 43 26 40 126 145 139 145 6 0 21 10 35 23 23 21 31 22 230 23 114 1
239 7 277 13 39 6 129 15 200 21 72 6 155 17 185 25 30 7 80 16 110 20 89 11
252 44 290 60 19 7 62 17 95 20 33 4 72 13 87 21 15 8 39 14 53 14 14 0 43 9
65 20 22 11 47 20 57 20 11 0 36 9 58 20 22 11 49 20 60 20 11 0 38 9 60 20
22 11 48 20 60 20 11 0 37 9 58 20 20 11 44 20 54 20 17 0 205 123 225 147 6
7 18 13 28 13 10 0 28 9 41 20 27 22 31 23 53 14z m216 -2395 c36 2 76 4 90 5
39 2 37 -17 -3 -39 -40 -22 -50 -38 -42 -66 7 -22 33 -24 60 -5 11 7 31 17 45
21 14 4 36 15 50 25 37 26 106 36 113 16 8 -19 -37 -56 -67 -56 -12 0 -30 -6
-40 -13 -28 -20 3 -77 41 -77 40 0 108 37 139 76 30 36 63 44 84 19 7 -8 17
-15 23 -15 39 0 307 -239 307 -274 0 -8 18 -35 40 -61 52 -61 111 -166 123
-223 5 -26 15 -56 22 -67 7 -11 15 -49 18 -85 3 -36 13 -100 21 -144 8 -48 11
-89 6 -105 -5 -14 -11 -50 -14 -79 -6 -61 14 -92 59 -92 28 0 150 53 160 70 3
5 23 10 44 10 21 0 58 7 82 16 51 19 171 40 314 54 118 12 390 7 408 -8 6 -6
41 -15 77 -22 78 -13 101 -21 205 -71 44 -20 96 -45 115 -53 79 -36 144 -83
222 -163 39 -39 178 -227 178 -240 0 -4 8 -25 19 -47 52 -114 64 -175 58 -297
-5 -115 -32 -231 -62 -269 -7 -8 -24 -40 -38 -70 -32 -69 -87 -148 -150 -214
-54 -57 -71 -89 -63 -122 9 -33 84 -80 140 -87 26 -4 59 -16 73 -27 14 -11 32
-20 40 -20 49 0 191 -154 240 -260 39 -84 51 -229 32 -375 -10 -83 -48 -215
-69 -240 -4 -5 -11 -27 -15 -48 -4 -20 -11 -40 -16 -42 -5 -3 -22 -34 -39 -69
-36 -76 -138 -186 -225 -241 -33 -22 -78 -54 -101 -72 -23 -19 -53 -33 -68
-33 -14 0 -52 -9 -83 -20 -69 -24 -183 -27 -257 -6 -28 8 -91 22 -141 30 -114
19 -205 40 -233 55 -11 6 -29 11 -39 11 -10 0 -40 11 -68 25 -27 13 -56 25
-63 25 -11 0 -83 35 -122 60 -16 10 -60 32 -100 51 -14 6 -32 15 -40 20 -8 5
-30 16 -47 24 -18 9 -33 20 -33 25 0 5 -12 13 -27 16 -16 4 -36 15 -46 25 -20
22 -79 25 -95 6 -10 -11 6 -100 23 -126 3 -6 10 -47 16 -93 5 -45 14 -87 19
-93 8 -9 1 -127 -19 -315 -9 -81 -41 -194 -61 -214 -6 -6 -10 -17 -10 -26 -1
-35 -70 -155 -140 -246 -82 -106 -248 -279 -295 -309 -16 -11 -48 -34 -71 -52
-23 -18 -46 -33 -51 -33 -5 0 -36 -13 -69 -29 -165 -81 -168 -82 -302 -92
-144 -11 -335 -3 -372 16 -14 7 -41 16 -60 20 -19 4 -42 13 -50 20 -8 7 -33
16 -55 20 -22 4 -51 13 -65 21 -14 7 -54 25 -90 40 -36 14 -81 40 -101 58 -21
17 -59 44 -85 61 -51 30 -156 112 -209 160 -181 168 -328 325 -390 420 -60 90
-88 95 -157 30 -27 -24 -48 -50 -48 -56 0 -17 -146 -158 -206 -199 -29 -19
-91 -70 -140 -113 -49 -44 -106 -89 -128 -100 -21 -12 -50 -28 -65 -36 -14 -8
-46 -29 -70 -48 -24 -18 -52 -33 -61 -33 -10 0 -29 -9 -43 -20 -14 -11 -33
-20 -43 -20 -10 0 -36 -9 -58 -19 -88 -42 -145 -62 -246 -87 -94 -23 -116 -25
-210 -19 -68 5 -111 12 -121 21 -9 8 -41 19 -71 23 -69 12 -159 40 -179 57 -8
8 -30 17 -47 20 -18 4 -35 10 -38 15 -2 5 -23 13 -44 19 -22 6 -56 21 -77 33
-46 27 -162 141 -185 182 -10 17 -37 56 -60 88 -115 158 -192 297 -226 412
-13 44 -31 93 -41 110 -10 16 -21 52 -25 79 -3 27 -12 56 -19 64 -8 10 -12 57
-12 148 0 162 -9 180 -81 170 -24 -3 -58 -12 -74 -21 -47 -24 -332 -21 -385 5
-22 11 -47 19 -57 20 -56 1 -174 79 -275 181 -97 100 -130 145 -139 196 -3 21
-13 63 -21 93 -17 59 -12 205 7 224 5 5 10 27 10 49 0 21 11 72 25 113 14 41
25 84 25 97 1 12 7 33 15 47 8 14 14 36 15 50 2 102 141 247 340 353 30 16 62
35 70 42 8 7 39 16 69 20 30 4 68 13 85 20 17 7 76 18 130 25 55 6 110 16 123
21 13 5 37 9 52 9 15 0 54 9 86 20 32 11 70 20 84 20 63 1 91 55 91 176 0 50
6 98 14 119 8 18 17 60 21 92 3 32 12 74 20 93 8 19 16 56 20 82 3 26 15 58
26 71 10 14 19 34 19 45 0 22 49 102 62 102 4 0 8 6 8 13 0 25 116 163 250
298 90 90 197 153 360 211 92 33 333 32 395 -1 21 -11 50 -21 63 -21 12 0 35
-6 50 -14 15 -8 46 -18 67 -21 22 -4 51 -13 65 -20 14 -7 50 -25 80 -40 30
-15 60 -32 65 -39 6 -7 39 -27 75 -45 36 -18 87 -48 115 -67 83 -57 162 -39
181 43 4 15 13 41 21 57 12 24 13 36 3 73 -10 32 -10 50 -2 68 6 13 14 65 18
115 4 56 12 94 20 101 8 6 14 25 14 42 0 39 50 143 89 185 17 18 43 54 58 80
43 75 111 154 164 190 27 18 49 38 49 43 0 5 5 9 11 9 5 0 37 18 69 40 32 22
68 40 78 40 11 0 30 8 43 19 13 10 40 22 59 26 19 4 40 11 46 16 20 16 203 58
300 69 53 5 104 15 114 20 10 6 29 10 42 10 13 0 51 8 83 17 79 22 186 32 260
25 33 -4 89 -5 125 -3z"/>
<path d="M7495 10557 c-73 -24 -144 -81 -145 -115 0 -7 -9 -31 -21 -54 -23
-45 -19 -127 7 -149 8 -6 14 -22 14 -34 0 -12 18 -45 40 -73 34 -42 51 -54
104 -72 62 -20 66 -20 138 -5 40 9 80 21 88 26 8 5 29 16 45 25 66 36 80 67
80 184 0 104 0 105 -38 166 -58 93 -84 109 -187 111 -49 2 -102 -3 -125 -10z
m138 -61 c18 -8 39 -16 47 -19 55 -17 103 -176 77 -253 -26 -75 -182 -120
-259 -75 -70 42 -118 200 -76 248 9 10 19 28 22 40 6 18 63 45 154 72 2 1 18
-5 35 -13z"/>
<path d="M7545 10398 c-29 -17 -65 -60 -65 -80 0 -19 56 -78 75 -78 7 0 28 7
48 15 57 24 63 66 16 120 -33 38 -43 41 -74 23z"/>
<path d="M3574 10296 c-47 -57 -70 -58 -108 -6 -36 49 -71 54 -88 13 -7 -19
-11 -109 -9 -268 1 -212 3 -241 18 -252 31 -24 53 -16 53 18 0 88 61 96 131
17 32 -37 50 -50 62 -45 23 9 21 50 -3 72 -25 23 -25 33 1 61 50 54 44 414 -8
431 -6 2 -28 -16 -49 -41z m26 -120 c0 -53 -10 -62 -79 -69 -66 -8 -81 2 -81
53 0 48 9 55 37 28 19 -18 26 -20 48 -10 14 7 28 19 31 27 4 8 15 15 25 15 16
0 19 -7 19 -44z m-10 -141 c10 -12 10 -24 1 -55 -13 -45 -31 -53 -102 -48 -44
3 -44 3 -47 44 -4 48 8 61 63 67 22 2 47 4 56 5 9 1 22 -5 29 -13z"/>
<path d="M4640 5468 c-32 -34 -14 -118 26 -118 21 0 64 52 64 78 0 60 -50 82
-90 40z"/>
<path d="M4960 5470 c-52 -52 6 -144 69 -110 16 8 21 20 21 55 0 69 -47 98
-90 55z"/>
<path d="M6280 5361 c-50 -14 -50 -9 -50 -724 l0 -669 29 -29 c28 -28 33 -29
118 -28 99 0 149 14 170 45 25 38 -7 58 -86 52 -37 -3 -78 -2 -93 1 l-28 6 -2
305 -2 305 68 6 c81 7 98 23 60 57 -19 16 -38 22 -73 22 -32 0 -51 5 -54 13
-3 8 -5 67 -6 133 0 65 -5 184 -11 263 -5 79 -7 148 -4 153 3 4 43 8 89 8 74
0 86 2 99 21 15 22 11 48 -8 61 -14 9 -182 8 -216 -1z"/>
<path d="M3519 5351 c-95 -10 -88 24 -93 -450 -4 -398 -19 -824 -30 -884 -15
-74 67 -153 145 -141 24 4 51 12 59 19 8 7 27 15 41 19 37 8 173 138 193 183
10 21 24 50 32 65 19 35 18 155 -1 201 -8 20 -15 47 -15 61 0 28 -12 58 -38
97 -85 128 -105 154 -131 170 -51 31 -49 50 18 132 34 40 61 78 61 84 0 6 10
22 21 37 27 35 40 133 27 206 -10 57 -49 143 -70 157 -30 18 -125 53 -143 51
-11 0 -45 -4 -76 -7z m142 -103 c66 -38 83 -168 32 -256 -28 -48 -140 -182
-153 -182 -4 0 -10 84 -13 188 -3 103 -10 200 -16 216 -16 41 0 56 61 56 32 0
62 -8 89 -22z m-21 -651 c14 -18 35 -42 47 -53 13 -12 23 -28 23 -36 0 -9 9
-26 19 -40 11 -13 22 -46 26 -73 5 -28 14 -67 21 -89 12 -34 12 -46 -6 -105
-21 -68 -31 -82 -109 -150 -37 -33 -134 -72 -146 -60 -4 6 15 622 20 638 9 24
77 4 105 -32z"/>
<path d="M5870 5330 c-20 -21 -30 -45 -35 -83 -4 -28 -13 -63 -20 -77 -7 -14
-16 -45 -20 -70 -3 -25 -15 -71 -26 -103 -10 -31 -19 -69 -19 -83 0 -14 -6
-37 -14 -52 -8 -15 -17 -58 -21 -97 -4 -38 -14 -82 -21 -97 -8 -15 -14 -44
-14 -66 0 -21 -6 -47 -14 -58 -14 -18 -15 -18 -21 11 -3 17 -15 59 -26 95 -10
36 -19 75 -19 88 0 13 -6 33 -12 45 -7 12 -18 45 -24 72 -7 28 -24 82 -39 120
-15 39 -31 86 -35 105 -11 46 -50 144 -78 198 -23 43 -49 53 -82 32 -18 -11
-28 -296 -30 -810 0 -168 -5 -344 -11 -392 -13 -99 -8 -130 26 -164 21 -21 28
-23 46 -14 48 26 50 49 51 556 0 261 4 474 7 474 6 0 34 -101 59 -210 17 -72
41 -162 56 -210 8 -25 18 -65 22 -90 3 -25 12 -56 19 -70 7 -14 16 -52 20 -85
9 -72 27 -105 59 -105 45 0 67 30 76 100 9 79 35 232 55 320 8 36 18 89 21
118 6 50 18 71 32 58 3 -4 5 -174 3 -379 -2 -317 0 -378 13 -416 9 -24 16 -54
16 -68 0 -27 34 -45 65 -33 32 12 35 57 25 465 -5 215 -8 514 -6 665 3 216 1
281 -10 301 -21 41 -42 43 -74 9z"/>
<path d="M4059 5321 l-29 -29 -1 -309 c-2 -423 -4 -471 -17 -603 -14 -140 -16
-457 -3 -492 11 -28 35 -41 62 -33 34 11 43 70 44 280 2 249 15 494 27 501 20
13 39 -25 53 -102 7 -43 25 -119 39 -169 15 -49 31 -115 37 -145 6 -30 17 -67
25 -82 8 -15 17 -56 21 -90 3 -35 12 -72 19 -83 6 -11 15 -34 19 -51 9 -46 69
-70 95 -39 15 18 -4 137 -26 170 -8 11 -14 30 -14 42 0 12 -7 44 -16 70 -10
26 -23 75 -29 108 -13 60 -21 89 -90 308 -37 116 -37 118 -19 143 11 15 24 34
29 43 6 9 24 35 41 56 17 22 35 51 39 65 4 14 15 33 24 44 23 27 22 254 -1
267 -9 5 -19 23 -23 39 -4 17 -16 35 -28 41 -12 6 -33 21 -47 34 -31 27 -92
45 -154 45 -39 0 -53 -5 -77 -29z m155 -76 c70 -41 96 -92 96 -185 0 -90 -8
-107 -104 -221 -65 -77 -83 -82 -78 -22 2 22 -2 128 -8 237 -6 108 -8 201 -5
206 11 17 55 11 99 -15z"/>
<path d="M4643 5158 c-6 -7 -20 -109 -33 -226 -28 -265 -27 -727 2 -772 9 -14
19 -43 23 -64 4 -22 13 -49 21 -60 8 -11 14 -30 15 -41 1 -36 62 -109 104
-123 160 -53 265 112 296 468 13 148 21 646 12 734 -8 75 -9 80 -36 89 -62 20
-62 22 -62 -431 0 -224 -3 -411 -6 -417 -4 -5 -12 -52 -18 -103 -7 -54 -20
-109 -31 -130 -11 -20 -20 -41 -20 -47 0 -16 -57 -75 -73 -75 -26 0 -42 34
-86 185 -20 68 -28 213 -40 750 -5 209 -31 310 -68 263z"/>
<path d="M6480 3681 c-5 -11 -10 -66 -10 -123 0 -57 -3 -120 -6 -140 l-7 -38
-26 17 c-14 9 -55 48 -91 87 -79 87 -188 186 -205 186 -22 0 -27 -32 -31 -204
-2 -93 -6 -178 -10 -188 -8 -27 14 -76 39 -84 55 -17 87 135 52 243 -5 17 -3
25 10 30 13 4 30 -7 64 -43 115 -123 141 -151 171 -177 18 -16 39 -26 47 -23
8 3 21 6 29 6 32 0 45 69 49 255 2 151 0 183 -13 198 -20 23 -49 22 -62 -2z"/>
<path d="M5043 3658 c-18 -23 -23 -64 -28 -231 -6 -190 0 -220 43 -215 26 3
27 6 32 68 7 89 14 97 80 102 l55 3 3 -55 c3 -81 8 -93 42 -113 26 -16 34 -17
47 -6 13 12 15 36 10 184 -6 174 -16 232 -49 262 -29 26 -42 3 -48 -90 l-5
-82 -53 -8 c-73 -12 -82 -2 -82 85 0 90 -20 130 -47 96z"/>
<path d="M3505 3640 c-74 -32 -116 -122 -118 -251 -2 -85 -1 -89 28 -119 67
-71 165 -91 245 -50 109 55 87 148 -23 96 -65 -30 -94 -32 -123 -8 -36 30 -47
60 -39 111 15 98 62 146 135 136 75 -10 91 35 28 79 -24 17 -100 20 -133 6z"/>
<path d="M4556 3623 c-96 -69 -129 -288 -53 -360 76 -72 160 -86 241 -38 65
38 80 69 50 100 -20 19 -55 13 -92 -16 -88 -69 -184 39 -139 157 28 73 50 89
119 89 57 0 63 2 66 21 2 14 -8 30 -28 48 -44 37 -111 36 -164 -1z"/>
<path d="M4052 3588 c-7 -7 -12 -18 -12 -25 0 -7 -11 -34 -24 -60 -110 -214
-120 -244 -83 -267 22 -14 48 1 65 40 26 58 27 59 86 62 54 3 57 2 66 -25 28
-78 57 -104 84 -77 22 21 20 73 -4 109 -11 17 -20 37 -20 45 0 8 -9 32 -20 53
-11 20 -20 43 -20 49 0 7 -14 34 -30 61 -31 48 -62 61 -88 35z m56 -144 c-5
-26 -38 -31 -38 -7 0 24 21 46 33 34 5 -5 7 -17 5 -27z"/>
<path d="M5682 3588 c-7 -7 -12 -20 -12 -30 0 -9 -11 -34 -25 -54 -14 -20 -25
-43 -25 -51 0 -8 -6 -27 -13 -41 -51 -101 -59 -120 -55 -147 5 -52 42 -40 81
25 32 53 34 55 73 52 62 -5 72 -11 85 -50 14 -46 24 -58 50 -65 30 -8 51 20
43 57 -6 29 -13 46 -55 141 -9 22 -22 51 -28 65 -6 14 -15 32 -20 40 -5 8 -14
27 -20 43 -12 29 -56 38 -79 15z m56 -141 c4 -20 -25 -34 -40 -19 -15 15 -1
44 19 40 10 -2 19 -11 21 -21z"/>
</g>
</svg>
